<svg width="11" height="11" fill="none" xmlns="http://www.w3.org/2000/svg"><path d="M.283 1.092A.642.642 0 0 1 .925.45h1.381a.642.642 0 0 1 .633.537l.475 2.845a.642.642 0 0 1-.347.68l-.993.497a7.082 7.082 0 0 0 3.917 3.917l.497-.993a.642.642 0 0 1 .68-.347l2.845.475a.641.641 0 0 1 .537.633v1.381a.641.641 0 0 1-.642.642H8.625A8.341 8.341 0 0 1 .283 2.375V1.092Z" fill="#fff"/><path d="m8.234 3.671 2.113-2.113a.642.642 0 0 0-.908-.907L7.326 2.764V1.746a.642.642 0 0 0-1.283 0v2.57a.64.64 0 0 0 .642.639H9.25a.642.642 0 0 0 0-1.284z" fill="#fff"/></svg>
