<svg width="53" height="60" fill="none" xmlns="http://www.w3.org/2000/svg"><g clip-path="url(#a)" fill-rule="evenodd" clip-rule="evenodd"><path d="M52.057 20.375 20.19 39.063l-4.924-2.81v-5.69l21.948-12.858 14.843-2.67v5.34Z" fill="#C6251B"/><path d="m52.056 15.035-14.844 2.67-11.185-6.464V0l26.029 15.035Z" fill="#FF181F"/><path d="M26.028 0v11.241l-16.25 9.415L0 15.036 26.028 0Z" fill="#C6251B"/><path d="m0 15.035 9.778 5.62v18.76L0 45.034v-30Z" fill="#FF181F"/><path d="m0 45.035 9.778-5.62 16.25 9.344V60L0 45.035Z" fill="#C6251B"/><path d="m42.277 39.415 9.779 5.62L26.027 60V48.759l16.25-9.344Z" fill="#FF181F"/><path d="M52.056 45.035V26.768l-9.779 5.691v6.955l9.779 5.621Z" fill="#C6251B"/></g><defs><clipPath id="a"><path fill="#fff" d="M0 0h52.056v60H0z"/></clipPath></defs></svg>