<svg version="1" xmlns="http://www.w3.org/2000/svg" width="128" height="128" viewBox="0 0 96.000000 96.000000"><path d="M26.9 12.4l-20.7 12v23.1c0 12.8.3 23.6.7 24.1.6.9 3.7 2.9 12.6 7.9 2.2 1.3 9.5 5.5 16.3 9.4L48.1 96l20.4-11.8 20.4-11.7.3-8.5c.2-4.7.1-11.3-.2-14.7l-.5-6.1-6.5 3.9c-3.6 2.1-6.9 4-7.4 4.2-.5.2-.9 2.8-.9 5.9l.2 5.5-13.2 7.6-13.1 7.6-3-1.8c-1.7-1-7.5-4.4-12.9-7.5l-9.8-5.7.3-15 .3-15.1 12.6-7.3 12.7-7.2 8.1 4.7c4.5 2.6 8.4 5 8.7 5.3.3.2-6.6 4.6-15.3 9.7-8.7 5.1-16.8 9.9-18 10.7-1.8 1.1-2.3 2.3-2.3 5.7 0 4 .4 4.7 3.4 6.5 1.8 1.2 3.8 2.1 4.4 2.1.7 0 12.7-6.8 26.7-15.1l25.6-15.2-.3-4.6-.3-4.6-16-9.3C63.7 9.1 54.5 3.9 52 2.6L47.5.3 26.9 12.4z"/></svg>